<svg width="86" height="64" viewBox="0 0 86 64" fill="none" xmlns="http://www.w3.org/2000/svg">
<path d="M41.3699 8.24908C38.59 8.54314 36.0033 9.26962 33.6433 10.4372C31.5437 11.475 29.5533 12.8588 28.0416 14.3291C23.0529 19.1896 20.4578 25.875 20.9029 32.6988C21.1464 36.4523 22.1207 39.6783 23.9935 42.9302C24.4302 43.6999 25.5136 45.2566 25.774 45.5075C25.9504 45.6631 25.9504 45.6631 26.2779 44.9453C27.1513 42.9907 28.6211 40.9842 30.1076 39.7042C30.5191 39.3496 30.9306 39.0123 31.0146 38.9431C31.1742 38.8307 31.149 38.7875 30.4855 38.0177C28.8478 36.115 27.6972 33.7626 27.0841 31.0642C26.8574 30.0956 26.849 29.9226 26.8406 28.0026C26.8406 26.2123 26.8658 25.8577 27.0338 25.0361C28.7386 16.6988 36.1209 10.8869 44.1582 11.5529C46.241 11.7258 48.0215 12.2102 49.9027 13.1096C54.2951 15.2199 57.6713 19.4664 58.8806 24.3961C59.183 25.6415 59.3005 26.6448 59.3005 28.0458C59.3005 29.4642 59.1914 30.3723 58.8722 31.635C58.1752 34.4199 56.8734 36.7896 54.8914 38.8653C54.4631 39.315 54.1271 39.6783 54.1355 39.6783C54.1523 39.6783 54.5722 39.4534 55.0677 39.1766C58.0828 37.5248 60.5939 35.1896 62.156 32.5864C62.6263 31.8167 63.2478 30.5453 63.2478 30.3723C63.2478 30.3118 63.2898 30.2339 63.3402 30.1994C63.4746 30.1129 63.3738 31.1248 63.1554 32.0502C62.7775 33.6329 62.0552 35.0166 60.6863 36.781C58.6035 39.4534 55.5548 41.6329 50.8433 43.821C46.7701 45.715 43.6459 46.9518 36.9187 49.3648C33.5006 50.5929 33.1142 50.7399 31.233 51.5096C27.7728 52.9453 25.1189 54.381 23.8591 55.5139L23.5652 55.7734L23.9431 55.7302C25.7908 55.4794 27.2857 55.3929 31.191 55.2977L35.533 55.2026L36.2636 54.5539C39.3207 51.8383 42.3273 50.1345 48.2146 47.808C53.2117 45.8361 54.6562 45.1529 56.5375 43.8729C58.2004 42.7399 59.6953 41.3302 60.6695 39.981C61.2826 39.1248 61.2658 39.1421 61.1902 39.5053C60.6863 41.9356 58.7379 44.755 56.2519 46.6577C54.3707 48.0934 52.9681 48.7767 48.9705 50.1864C45.3675 51.4491 42.8732 52.7723 40.7568 54.5194C40.3705 54.8307 40.0681 55.0988 40.0849 55.1161C40.1353 55.168 45.7287 53.9485 47.0388 53.6026C52.1451 52.2534 56.0252 50.0912 59.0486 46.8826C60.8711 44.9626 62.03 43.2415 63.1554 40.7939C63.9953 38.9604 64.6588 36.7118 64.9863 34.5669C65.1963 33.1572 65.2047 29.3258 64.9863 27.9161C64.6168 25.5031 63.9281 23.2804 62.8531 21.0664C61.7109 18.7139 60.5099 16.9756 58.7211 15.0815C55.2777 11.4491 50.8517 9.14854 45.9134 8.40476C45.0904 8.28368 42.0418 8.17989 41.3699 8.24908Z" fill="white"/>
<path d="M47.316 19.034C47.2236 19.1377 46.8289 19.7085 46.4426 20.3053C45.5271 21.7064 45.124 22.1302 44.4773 22.3723C43.3939 22.7702 43.2595 22.8307 42.932 23.0556C42.7472 23.1853 42.2601 23.6956 41.8486 24.1972C40.7904 25.4772 39.8582 26.221 38.4724 26.9215C37.7418 27.2848 37.7166 27.3107 37.9433 27.3713C38.0693 27.4058 38.5732 27.4404 39.0603 27.4404C39.7406 27.4404 40.0849 27.3885 40.5636 27.2415C40.8996 27.1291 41.1935 27.0513 41.2019 27.0685C41.2607 27.1291 40.0261 28.0631 39.4802 28.3745C39.1611 28.5561 38.5648 28.7896 38.1281 28.9021L37.3554 29.1096L37.683 29.3258C37.8594 29.4556 38.2625 29.6199 38.5732 29.7064C39.0435 29.8361 39.2199 29.8448 39.6818 29.7583C39.9842 29.7064 40.3453 29.6026 40.4965 29.5248C40.6476 29.4469 40.782 29.3864 40.7988 29.3864C40.8576 29.3864 40.1269 30.8221 39.8414 31.2631C39.1527 32.3356 37.7754 33.4945 36.398 34.1691L35.8269 34.4458L36.2469 34.515C37.3302 34.688 39.0603 34.2642 39.7658 33.6329C39.917 33.5031 39.917 33.5031 39.8162 33.7107C39.5558 34.2296 38.506 35.5529 37.8594 36.1842C37.473 36.5561 36.7676 37.1615 36.2972 37.5161C33.341 39.7388 32.6607 40.301 31.6193 41.3648C30.3763 42.6361 29.9648 43.1723 29.1838 44.4956C28.4279 45.7756 27.882 47.0296 27.4201 48.4999C27.2185 49.1399 26.8658 50.7572 26.9162 50.8091C26.9246 50.8264 27.4621 50.5756 28.1088 50.2642C29.7465 49.4599 31.2834 48.8458 34.5252 47.6869C38.59 46.234 39.7154 45.7842 40.992 45.1269C43.7803 43.6913 45.5187 42.0048 46.325 39.9723L46.5097 39.4967L46.7365 40.1107C46.8541 40.448 46.9549 40.7853 46.9549 40.8545C46.9549 41.3561 47.4588 40.3183 47.6771 39.3669C47.9123 38.3118 47.8367 36.6858 47.484 35.4837C47.4504 35.3453 47.4672 35.354 47.6099 35.5356C47.7023 35.6567 48.1306 36.0631 48.559 36.435L49.3316 37.1183L49.2812 36.6426C49.2056 36.0113 48.9705 35.328 48.4666 34.2729C48.0635 33.4167 47.3412 32.2058 47.0136 31.8253C46.7869 31.5745 46.8961 31.5831 47.2404 31.8513C47.8031 32.2923 48.9201 32.6815 49.6256 32.6729L49.9363 32.6642L49.6424 32.4307C48.1474 31.2631 47.274 29.2221 47.5428 27.5615C47.7107 26.5669 48.0803 25.9183 49.0629 24.9323C49.9279 24.0588 50.2303 23.5831 50.2303 23.1161C50.2303 22.8134 49.9447 22.1215 49.8187 22.1215C49.7683 22.1215 49.6592 22.3031 49.5584 22.528C49.466 22.7529 49.3232 23.0037 49.2476 23.0902C49.0713 23.2977 48.3826 23.7042 48.3238 23.6437C48.2986 23.6177 48.3574 23.0383 48.4582 22.3637C48.6597 20.954 48.6765 20.4783 48.517 20.0372C48.3742 19.6221 47.9879 19.1118 47.7107 18.9648C47.5008 18.8523 47.4672 18.861 47.316 19.034ZM44.998 23.4534C44.9728 23.5226 44.9056 23.7388 44.8553 23.9291C44.7881 24.1799 44.6705 24.3442 44.3681 24.5691C44.1498 24.7421 43.965 24.8718 43.9566 24.8545C43.9482 24.8458 43.9986 24.595 44.0742 24.301C44.1918 23.8167 44.2422 23.7388 44.5529 23.5485C44.9476 23.3064 45.0568 23.2804 44.998 23.4534Z" fill="white"/>
</svg>
