<?xml version="1.0"?>
<svg width="86" height="64" xmlns="http://www.w3.org/2000/svg" xmlns:svg="http://www.w3.org/2000/svg">
 <g class="layer">
  <title>Layer 1</title>
  <ellipse cx="43" cy="32" fill="#000000" id="svg_5" rx="31.5" ry="31.5"/>
  <g id="svg_6">
   <path d="m41.53,10.62c-2.5,0.26 -4.83,0.92 -6.96,1.97c-1.89,0.93 -3.68,2.18 -5.04,3.5c-4.49,4.37 -6.82,10.4 -6.43,16.53c0.23,3.38 1.1,6.28 2.78,9.21c0.4,0.69 1.37,2.1 1.6,2.32c0.16,0.14 0.16,0.14 0.46,-0.5c0.78,-1.76 2.11,-3.57 3.45,-4.73c0.37,-0.32 0.74,-0.62 0.81,-0.68c0.14,-0.1 0.13,-0.14 -0.47,-0.83c-1.48,-1.71 -2.51,-3.83 -3.07,-6.26c-0.2,-0.86 -0.21,-1.03 -0.22,-2.75c0,-1.61 0.03,-1.93 0.17,-2.66c1.54,-7.51 8.18,-12.74 15.42,-12.14c1.87,0.16 3.47,0.59 5.17,1.4c3.96,1.9 6.99,5.72 8.08,10.16c0.27,1.12 0.38,2.02 0.38,3.29c0,1.27 -0.1,2.09 -0.39,3.23c-0.62,2.5 -1.8,4.64 -3.58,6.51c-0.39,0.4 -0.68,0.73 -0.68,0.73c0.01,0 0.39,-0.21 0.84,-0.45c2.71,-1.49 4.97,-3.59 6.38,-5.93c0.42,-0.69 0.98,-1.84 0.98,-2c0,-0.05 0.04,-0.13 0.08,-0.15c0.12,-0.08 0.03,0.83 -0.16,1.67c-0.34,1.42 -0.99,2.67 -2.22,4.26c-1.88,2.4 -4.63,4.37 -8.87,6.34c-3.66,1.71 -6.47,2.82 -12.53,4.99c-3.08,1.11 -3.43,1.24 -5.12,1.94c-3.11,1.3 -5.5,2.58 -6.63,3.6l-0.26,0.23l0.33,-0.04c1.67,-0.23 3.02,-0.31 6.53,-0.39l3.91,-0.09l0.66,-0.59c2.75,-2.44 5.46,-3.98 10.76,-6.07c4.5,-1.77 5.81,-2.39 7.5,-3.55c1.49,-1.02 2.84,-2.29 3.72,-3.5c0.55,-0.77 0.54,-0.76 0.47,-0.42c-0.45,2.19 -2.21,4.73 -4.45,6.44c-1.69,1.29 -2.95,1.91 -6.55,3.18c-3.24,1.13 -5.49,2.32 -7.39,3.9c-0.35,0.28 -0.62,0.52 -0.61,0.54c0.05,0.05 5.09,-1.05 6.26,-1.37c4.6,-1.22 8.09,-3.16 10.81,-6.05c1.64,-1.73 2.68,-3.28 3.7,-5.48c0.76,-1.65 1.35,-3.67 1.65,-5.6c0.19,-1.27 0.19,-4.72 0,-5.99c-0.33,-2.18 -0.95,-4.18 -1.93,-6.17c-1.03,-2.12 -2.11,-3.68 -3.72,-5.39c-3.1,-3.27 -7.08,-5.34 -11.53,-6.01c-0.74,-0.11 -3.48,-0.2 -4.09,-0.14z" fill="#ffffff" id="svg_1"/>
   <path d="m46.89,20.33c-0.09,0.1 -0.44,0.61 -0.79,1.15c-0.82,1.26 -1.19,1.64 -1.76,1.85c-0.98,0.36 -1.1,0.41 -1.4,0.62c-0.16,0.12 -0.6,0.58 -0.97,1.03c-0.95,1.15 -1.79,1.82 -3.04,2.45c-0.66,0.32 -0.68,0.35 -0.48,0.41c0.12,0.04 0.57,0.06 1.01,0.06c0.61,0 0.92,-0.05 1.35,-0.18c0.31,-0.1 0.57,-0.17 0.58,-0.15c0.05,0.05 -1.05,0.89 -1.55,1.17c-0.29,0.17 -0.83,0.38 -1.22,0.48l-0.69,0.19l0.29,0.2c0.16,0.12 0.52,0.26 0.8,0.34c0.42,0.12 0.59,0.12 1,0.05c0.27,-0.05 0.6,-0.14 0.74,-0.22c0.14,-0.06 0.25,-0.12 0.27,-0.12c0.05,0 -0.6,1.29 -0.86,1.68c-0.62,0.97 -1.85,2.01 -3.1,2.62l-0.51,0.25l0.38,0.06c0.97,0.15 2.53,-0.23 3.17,-0.8c0.14,-0.12 0.14,-0.12 0.05,0.07c-0.23,0.47 -1.18,1.66 -1.76,2.22c-0.35,0.34 -0.98,0.88 -1.4,1.21c-2.66,2 -3.28,2.5 -4.21,3.46c-1.12,1.15 -1.49,1.63 -2.2,2.83c-0.68,1.15 -1.17,2.28 -1.58,3.6c-0.18,0.58 -0.5,2.03 -0.45,2.08c0,0.02 0.49,-0.21 1.07,-0.5c1.48,-0.72 2.85,-1.27 5.78,-2.31c3.65,-1.31 4.67,-1.72 5.81,-2.3c2.51,-1.3 4.08,-2.82 4.81,-4.64l0.16,-0.42l0.21,0.55c0.1,0.31 0.19,0.61 0.19,0.67c0,0.46 0.46,-0.48 0.66,-1.33c0.21,-0.95 0.14,-2.41 -0.18,-3.5c-0.03,-0.12 -0.01,-0.12 0.12,0.05c0.08,0.11 0.47,0.47 0.86,0.81l0.69,0.61l-0.05,-0.43c-0.06,-0.57 -0.28,-1.18 -0.73,-2.13c-0.37,-0.77 -1.02,-1.85 -1.31,-2.2c-0.2,-0.23 -0.1,-0.23 0.21,0.02c0.5,0.4 1.51,0.75 2.15,0.74l0.28,-0.01l-0.27,-0.21c-1.34,-1.05 -2.13,-2.89 -1.89,-4.38c0.15,-0.89 0.49,-1.48 1.37,-2.37c0.78,-0.78 1.05,-1.22 1.05,-1.63c0,-0.28 -0.26,-0.9 -0.37,-0.9c-0.05,0 -0.14,0.16 -0.23,0.37c-0.08,0.2 -0.22,0.42 -0.28,0.5c-0.16,0.19 -0.78,0.55 -0.84,0.5c-0.02,-0.02 0.04,-0.54 0.13,-1.15c0.18,-1.27 0.2,-1.69 0.05,-2.09c-0.14,-0.38 -0.48,-0.84 -0.73,-0.97c-0.19,-0.1 -0.22,-0.09 -0.35,0.06zm-2.09,3.98c-0.03,0.06 -0.08,0.26 -0.13,0.43c-0.06,0.23 -0.17,0.37 -0.44,0.58c-0.2,0.15 -0.36,0.27 -0.37,0.25c-0.01,0 0.04,-0.23 0.1,-0.5c0.11,-0.43 0.15,-0.5 0.43,-0.68c0.36,-0.22 0.46,-0.24 0.41,-0.09z" fill="#ffffff" id="svg_2"/>
  </g>
 </g>
</svg>