<svg width="234" height="211" viewBox="0 0 234 211" fill="none" xmlns="http://www.w3.org/2000/svg">
<path d="M112.564 22.4272C105.001 23.2266 97.9623 25.2018 91.541 28.3761C85.8281 31.1977 80.4123 34.9599 76.299 38.9572C62.7251 52.1718 55.664 70.3477 56.8751 88.8999C57.5378 99.1047 60.1886 107.875 65.2845 116.716C66.4728 118.809 69.4207 123.041 70.1291 123.723C70.6089 124.147 70.6089 124.147 71.5001 122.195C73.8767 116.881 77.8757 111.426 81.9205 107.946C83.0402 106.982 84.1599 106.065 84.3884 105.877C84.8226 105.571 84.7541 105.453 82.9488 103.361C78.4927 98.1877 75.3621 91.792 73.6939 84.4558C73.0769 81.8223 73.0541 81.352 73.0312 76.132C73.0312 71.2647 73.0998 70.3007 73.5568 68.0669C78.1957 45.3999 98.2822 29.5988 120.151 31.4093C125.818 31.8796 130.663 33.1964 135.782 35.6418C147.733 41.3791 156.919 52.9242 160.21 66.3269C161.033 69.7128 161.352 72.4404 161.352 76.2496C161.352 80.1058 161.055 82.5747 160.187 86.0077C158.29 93.579 154.748 100.022 149.355 105.665C148.19 106.888 147.276 107.875 147.299 107.875C147.344 107.875 148.487 107.264 149.835 106.511C158.039 102.02 164.872 95.6717 169.122 88.5942C170.402 86.5015 172.093 83.045 172.093 82.5747C172.093 82.4101 172.207 82.1985 172.344 82.1045C172.71 81.8693 172.435 84.6204 171.841 87.1363C170.813 91.4393 168.848 95.2015 165.123 99.9982C159.456 107.264 151.161 113.189 138.341 119.138C127.258 124.288 118.757 127.65 100.453 134.21C91.1525 137.549 90.1013 137.949 84.9826 140.042C75.5677 143.945 68.3466 147.848 64.9189 150.929L64.1191 151.634L65.1474 151.516C70.1748 150.834 74.2423 150.599 84.8683 150.341L96.6826 150.082L98.6707 148.319C106.989 140.935 115.169 136.303 131.188 129.978C144.785 124.617 148.716 122.759 153.834 119.279C158.359 116.199 162.427 112.366 165.077 108.698C166.745 106.37 166.7 106.417 166.494 107.405C165.123 114.012 159.821 121.678 153.057 126.851C147.939 130.754 144.122 132.611 133.245 136.444C123.442 139.877 116.655 143.475 110.896 148.224C109.845 149.071 109.022 149.8 109.068 149.847C109.205 149.988 124.424 146.673 127.989 145.732C141.883 142.064 152.44 136.186 160.667 127.462C165.626 122.242 168.779 117.563 171.841 110.909C174.127 105.924 175.932 99.8101 176.823 93.9788C177.394 90.1461 177.417 79.7296 176.823 75.8969C175.818 69.3366 173.944 63.2936 171.019 57.2742C167.911 50.8785 164.643 46.1523 159.776 41.0028C150.407 31.1272 138.364 24.8726 124.927 22.8504C122.688 22.5212 114.393 22.239 112.564 22.4272Z" fill="white"/>
<path d="M128.743 51.7485C128.492 52.0307 127.418 53.5826 126.367 55.205C123.876 59.0142 122.779 60.1663 121.02 60.8247C118.072 61.9063 117.706 62.0709 116.815 62.6823C116.312 63.035 114.987 64.4223 113.867 65.7861C110.988 69.2661 108.451 71.2882 104.681 73.1928C102.693 74.1804 102.624 74.2509 103.241 74.4155C103.584 74.5096 104.955 74.6036 106.28 74.6036C108.131 74.6036 109.068 74.4626 110.371 74.0628C111.285 73.7572 112.085 73.5455 112.107 73.5926C112.267 73.7572 108.908 76.2966 107.423 77.1431C106.554 77.6369 104.932 78.2718 103.744 78.5774L101.641 79.1418L102.533 79.7296C103.012 80.0823 104.109 80.5291 104.955 80.7642C106.235 81.1169 106.714 81.1404 107.971 80.9053C108.794 80.7642 109.777 80.482 110.188 80.2704C110.599 80.0588 110.965 79.8942 111.011 79.8942C111.17 79.8942 109.182 83.7974 108.405 84.9966C106.532 87.9123 102.784 91.0631 99.0363 92.8972L97.4824 93.6496L98.625 93.8377C101.573 94.308 106.28 93.1558 108.2 91.4393C108.611 91.0866 108.611 91.0866 108.337 91.6509C107.628 93.0618 104.772 96.6593 103.012 98.3758C101.961 99.3869 100.042 101.033 98.7621 101.997C90.7183 108.04 88.8674 109.568 86.0338 112.46C82.6517 115.917 81.532 117.375 79.4068 120.972C77.3502 124.452 75.8648 127.862 74.608 131.859C74.0595 133.599 73.0998 137.996 73.2369 138.137C73.2597 138.184 74.7222 137.502 76.4818 136.656C80.9379 134.469 85.1197 132.8 93.9404 129.649C105.001 125.699 108.063 124.476 111.536 122.689C119.123 118.786 123.853 114.2 126.047 108.675L126.55 107.381L127.167 109.051C127.487 109.968 127.761 110.885 127.761 111.073C127.761 112.437 129.132 109.615 129.726 107.029C130.366 104.16 130.16 99.7396 129.2 96.4712C129.109 96.095 129.155 96.1185 129.543 96.6123C129.795 96.9415 130.96 98.0466 132.125 99.0577L134.228 100.915L134.091 99.622C133.885 97.9055 133.245 96.048 131.874 93.1793C130.777 90.8515 128.812 87.5596 127.921 86.525C127.304 85.8431 127.601 85.8666 128.538 86.5955C130.069 87.7947 133.108 88.8528 135.028 88.8293L135.873 88.8058L135.073 88.1709C131.006 84.9966 128.629 79.4474 129.36 74.9328C129.817 72.2288 130.823 70.4653 133.496 67.7847C135.85 65.4099 136.673 64.1166 136.673 62.8469C136.673 62.0239 135.896 60.1428 135.553 60.1428C135.416 60.1428 135.119 60.6366 134.845 61.248C134.593 61.8593 134.205 62.5412 133.999 62.7763C133.519 63.3407 131.645 64.4458 131.486 64.2812C131.417 64.2107 131.577 62.6353 131.851 60.8012C132.4 56.9685 132.445 55.6753 132.011 54.4761C131.623 53.3474 130.571 51.9601 129.817 51.5604C129.246 51.2547 129.155 51.2782 128.743 51.7485ZM122.436 63.7639C122.368 63.952 122.185 64.5399 122.048 65.0572C121.865 65.739 121.545 66.1858 120.722 66.7972C120.128 67.2674 119.626 67.6201 119.603 67.5731C119.58 67.5496 119.717 66.8677 119.923 66.0682C120.243 64.7515 120.38 64.5399 121.225 64.0226C122.299 63.3642 122.596 63.2936 122.436 63.7639Z" fill="white"/>
<path d="M34.313 186C33.6408 186 33.3047 185.64 33.3047 184.92V166.425C33.3047 165.704 33.6408 165.344 34.313 165.344H36.4448C37.2707 165.344 37.8949 165.68 38.3174 166.353L45.6636 178.15H45.7644C45.7164 177.573 45.6924 176.997 45.6924 176.421V166.425C45.6924 165.704 46.0285 165.344 46.7007 165.344H48.8901C49.5623 165.344 49.8984 165.704 49.8984 166.425V184.92C49.8984 185.64 49.5623 186 48.8901 186H46.9023C46.0765 186 45.4523 185.664 45.0298 184.992L37.5396 172.979H37.4387C37.4867 173.555 37.5107 174.131 37.5107 174.707V184.92C37.5107 185.64 37.1746 186 36.5024 186H34.313ZM55.5161 186C54.8439 186 54.5078 185.64 54.5078 184.92V166.425C54.5078 165.704 54.8439 165.344 55.5161 165.344H57.7056C58.3778 165.344 58.7139 165.704 58.7139 166.425V184.92C58.7139 185.64 58.3778 186 57.7056 186H55.5161ZM62.2573 175.672C62.2573 172.359 63.1216 169.728 64.8501 167.779C66.5786 165.829 69.0273 164.854 72.1963 164.854C74.1073 164.854 75.6053 165.099 76.6904 165.589C77.7852 166.079 78.7454 166.837 79.5713 167.865C80.0706 168.489 80.0562 168.974 79.5281 169.32L77.886 170.386C77.4058 170.703 76.8921 170.563 76.3447 169.968C75.8934 169.478 75.322 169.07 74.6306 168.744C73.9392 168.417 73.1758 168.254 72.3403 168.254C70.3237 168.254 68.8881 168.892 68.0334 170.17C67.1788 171.437 66.7515 173.271 66.7515 175.672C66.7515 178.073 67.1788 179.912 68.0334 181.189C68.8881 182.457 70.3237 183.09 72.3403 183.09C73.3198 183.09 74.1649 182.994 74.8755 182.802C75.5861 182.601 76.2583 182.24 76.8921 181.722V179.144H73.7664C73.0461 179.144 72.686 178.831 72.686 178.207V176.508C72.686 175.883 73.0461 175.571 73.7664 175.571H80.0178C80.738 175.571 81.0981 175.883 81.0981 176.508V183.825C79.7537 184.814 78.3949 185.505 77.0217 185.899C75.6581 186.293 74.0496 186.49 72.1963 186.49C69.0754 186.49 66.6362 185.515 64.8789 183.566C63.1312 181.616 62.2573 178.985 62.2573 175.672ZM86.0244 186C85.3522 186 85.0161 185.64 85.0161 184.92V166.425C85.0161 165.704 85.3522 165.344 86.0244 165.344H88.2139C88.8861 165.344 89.2222 165.704 89.2222 166.425V173.468H96.9717V166.425C96.9717 165.704 97.3078 165.344 97.98 165.344H100.169C100.842 165.344 101.178 165.704 101.178 166.425V184.92C101.178 185.64 100.842 186 100.169 186H97.98C97.3078 186 96.9717 185.64 96.9717 184.92V177.041H89.2222V184.92C89.2222 185.64 88.8861 186 88.2139 186H86.0244ZM105.052 169.032C104.332 169.032 103.972 168.72 103.972 168.095V166.281C103.972 165.656 104.332 165.344 105.052 165.344H119.86C120.58 165.344 120.94 165.656 120.94 166.281V168.095C120.94 168.72 120.58 169.032 119.86 169.032H114.559V185.208C114.559 185.736 114.319 186 113.839 186H111.073C110.593 186 110.353 185.736 110.353 185.208V169.032H105.052ZM124.743 186C124.071 186 123.735 185.64 123.735 184.92V166.425C123.735 165.704 124.071 165.344 124.743 165.344H136.137C136.857 165.344 137.217 165.656 137.217 166.281V167.98C137.217 168.604 136.857 168.917 136.137 168.917H127.941V173.929H134.956C135.676 173.929 136.036 174.241 136.036 174.865V176.565C136.036 177.189 135.676 177.501 134.956 177.501H127.941V184.92C127.941 185.64 127.605 186 126.933 186H124.743ZM138.96 186C138.269 186 138.043 185.683 138.283 185.049L145.341 166.511C145.639 165.733 146.09 165.344 146.695 165.344H148.712C149.317 165.344 149.768 165.733 150.066 166.511L157.124 185.049C157.364 185.683 157.138 186 156.447 186H154.157C153.523 186 153.081 185.669 152.832 185.006L151.362 181.131H144.045L142.576 185.006C142.326 185.669 141.884 186 141.25 186H138.96ZM145.385 177.559H150.023L148.251 172.979C148.04 172.441 147.91 172.052 147.862 171.812C147.824 171.562 147.78 171.197 147.732 170.717H147.675C147.627 171.197 147.579 171.562 147.531 171.812C147.492 172.052 147.368 172.441 147.156 172.979L145.385 177.559ZM160.696 186C160.024 186 159.688 185.64 159.688 184.92V166.425C159.688 165.704 160.024 165.344 160.696 165.344H162.828C163.654 165.344 164.278 165.68 164.701 166.353L172.047 178.15H172.148C172.1 177.573 172.076 176.997 172.076 176.421V166.425C172.076 165.704 172.412 165.344 173.084 165.344H175.273C175.946 165.344 176.282 165.704 176.282 166.425V184.92C176.282 185.64 175.946 186 175.273 186H173.286C172.46 186 171.836 185.664 171.413 184.992L163.923 172.979H163.822C163.87 173.555 163.894 174.131 163.894 174.707V184.92C163.894 185.64 163.558 186 162.886 186H160.696ZM179.825 175.672C179.825 172.359 180.689 169.728 182.418 167.779C184.146 165.829 186.595 164.854 189.764 164.854C191.675 164.854 193.173 165.099 194.258 165.589C195.353 166.079 196.313 166.837 197.139 167.865C197.639 168.489 197.624 168.974 197.096 169.32L195.454 170.386C194.974 170.703 194.46 170.563 193.913 169.968C193.461 169.478 192.89 169.07 192.198 168.744C191.507 168.417 190.744 168.254 189.908 168.254C187.892 168.254 186.456 168.892 185.601 170.17C184.747 171.437 184.319 173.271 184.319 175.672C184.319 178.073 184.747 179.912 185.601 181.189C186.456 182.457 187.892 183.09 189.908 183.09C190.888 183.09 191.733 182.994 192.443 182.802C193.154 182.601 193.826 182.24 194.46 181.722V179.144H191.334C190.614 179.144 190.254 178.831 190.254 178.207V176.508C190.254 175.883 190.614 175.571 191.334 175.571H197.586C198.306 175.571 198.666 175.883 198.666 176.508V183.825C197.322 184.814 195.963 185.505 194.59 185.899C193.226 186.293 191.618 186.49 189.764 186.49C186.643 186.49 184.204 185.515 182.447 183.566C180.699 181.616 179.825 178.985 179.825 175.672Z" fill="white"/>
<path d="M34.3557 202C33.9 202 33.6721 201.756 33.6721 201.268V188.729C33.6721 188.24 33.9 187.996 34.3557 187.996H42.7346C43.2229 187.996 43.467 188.208 43.467 188.631V189.783C43.467 190.206 43.2229 190.418 42.7346 190.418H36.5237V193.523H42.217C42.7053 193.523 42.9495 193.735 42.9495 194.158V195.311C42.9495 195.734 42.7053 195.945 42.217 195.945H36.5237V199.578H43.0471C43.5354 199.578 43.7795 199.79 43.7795 200.213V201.365C43.7795 201.788 43.5354 202 43.0471 202H34.3557ZM46.8557 202C46.4 202 46.1721 201.756 46.1721 201.268V188.729C46.1721 188.24 46.4 187.996 46.8557 187.996H48.301C48.8609 187.996 49.2841 188.224 49.5706 188.68L54.551 196.678H54.6194C54.5868 196.287 54.5706 195.896 54.5706 195.506V188.729C54.5706 188.24 54.7984 187.996 55.2542 187.996H56.7385C57.1943 187.996 57.4221 188.24 57.4221 188.729V201.268C57.4221 201.756 57.1943 202 56.7385 202H55.3909C54.831 202 54.4078 201.772 54.1213 201.316L49.0432 193.172H48.9749C49.0074 193.562 49.0237 193.953 49.0237 194.344V201.268C49.0237 201.756 48.7958 202 48.3401 202H46.8557ZM60.0491 190.496C59.5608 190.496 59.3167 190.285 59.3167 189.861V188.631C59.3167 188.208 59.5608 187.996 60.0491 187.996H70.0881C70.5764 187.996 70.8206 188.208 70.8206 188.631V189.861C70.8206 190.285 70.5764 190.496 70.0881 190.496H66.4944V201.463C66.4944 201.821 66.3316 202 66.0061 202H64.1311C63.8056 202 63.6428 201.821 63.6428 201.463V190.496H60.0491ZM73.3987 202C72.943 202 72.7151 201.756 72.7151 201.268V188.729C72.7151 188.24 72.943 187.996 73.3987 187.996H81.7776C82.2659 187.996 82.51 188.208 82.51 188.631V189.783C82.51 190.206 82.2659 190.418 81.7776 190.418H75.5667V193.523H81.26C81.7483 193.523 81.9924 193.735 81.9924 194.158V195.311C81.9924 195.734 81.7483 195.945 81.26 195.945H75.5667V199.578H82.0901C82.5784 199.578 82.8225 199.79 82.8225 200.213V201.365C82.8225 201.788 82.5784 202 82.0901 202H73.3987ZM85.8987 202C85.443 202 85.2151 201.756 85.2151 201.268V188.729C85.2151 188.24 85.443 187.996 85.8987 187.996H90.4202C92.4319 187.996 93.9 188.309 94.8245 188.934C95.7489 189.552 96.2112 190.561 96.2112 191.961C96.2112 193.003 95.8368 193.833 95.0881 194.451C94.3394 195.07 93.3889 195.48 92.2366 195.682V195.701C92.8616 195.936 93.3336 196.261 93.6526 196.678C93.9716 197.094 94.232 197.459 94.4338 197.771L96.5823 201.16C96.9403 201.72 96.8167 202 96.2112 202H94.512C94.1539 202 93.8609 201.808 93.6331 201.424L91.6604 198.133C91.4456 197.781 91.0517 197.397 90.4788 196.98C89.9124 196.557 89.3492 196.346 88.7893 196.346H88.0667V201.268C88.0667 201.756 87.8388 202 87.3831 202H85.8987ZM88.0667 193.924H89.8147C91.1168 193.924 92.0413 193.777 92.5881 193.484C93.1415 193.185 93.4182 192.713 93.4182 192.068C93.4182 191.365 93.1513 190.91 92.6174 190.701C92.0901 190.486 91.3121 190.379 90.2834 190.379H88.0667V193.924ZM98.6624 190.496C98.1741 190.496 97.9299 190.285 97.9299 189.861V188.631C97.9299 188.208 98.1741 187.996 98.6624 187.996H108.701C109.19 187.996 109.434 188.208 109.434 188.631V189.861C109.434 190.285 109.19 190.496 108.701 190.496H105.108V201.463C105.108 201.821 104.945 202 104.619 202H102.744C102.419 202 102.256 201.821 102.256 201.463V190.496H98.6624ZM109.19 202C108.721 202 108.568 201.785 108.731 201.355L113.516 188.787C113.718 188.26 114.024 187.996 114.434 187.996H115.801C116.211 187.996 116.517 188.26 116.719 188.787L121.504 201.355C121.667 201.785 121.514 202 121.045 202H119.492C119.063 202 118.763 201.775 118.594 201.326L117.598 198.699H112.637L111.641 201.326C111.472 201.775 111.172 202 110.742 202H109.19ZM113.545 196.277H116.69L115.489 193.172C115.345 192.807 115.257 192.544 115.225 192.381C115.199 192.212 115.17 191.964 115.137 191.639H115.098C115.065 191.964 115.033 192.212 115 192.381C114.974 192.544 114.89 192.807 114.746 193.172L113.545 196.277ZM123.926 202C123.47 202 123.242 201.756 123.242 201.268V188.729C123.242 188.24 123.47 187.996 123.926 187.996H125.41C125.866 187.996 126.094 188.24 126.094 188.729V201.268C126.094 201.756 125.866 202 125.41 202H123.926ZM129.903 202C129.447 202 129.219 201.756 129.219 201.268V188.729C129.219 188.24 129.447 187.996 129.903 187.996H131.348C131.908 187.996 132.331 188.224 132.617 188.68L137.598 196.678H137.666C137.634 196.287 137.617 195.896 137.617 195.506V188.729C137.617 188.24 137.845 187.996 138.301 187.996H139.785C140.241 187.996 140.469 188.24 140.469 188.729V201.268C140.469 201.756 140.241 202 139.785 202H138.438C137.878 202 137.455 201.772 137.168 201.316L132.09 193.172H132.022C132.054 193.562 132.071 193.953 132.071 194.344V201.268C132.071 201.756 131.843 202 131.387 202H129.903ZM144.278 202C143.822 202 143.594 201.756 143.594 201.268V188.729C143.594 188.24 143.822 187.996 144.278 187.996H147.11C147.487 187.996 147.757 188.257 147.92 188.777L150.567 197.342C150.684 197.713 150.765 198.019 150.811 198.26C150.856 198.494 150.895 198.774 150.928 199.1H150.987C151.019 198.774 151.058 198.494 151.104 198.26C151.149 198.019 151.231 197.713 151.348 197.342L153.994 188.777C154.157 188.257 154.427 187.996 154.805 187.996H157.637C158.093 187.996 158.321 188.24 158.321 188.729V201.268C158.321 201.756 158.093 202 157.637 202H156.153C155.697 202 155.469 201.756 155.469 201.268V193.201C155.469 192.811 155.485 192.42 155.518 192.029H155.449L152.627 201.209C152.464 201.736 152.184 202 151.787 202H150.127C149.73 202 149.45 201.736 149.287 201.209L146.465 192.029H146.397C146.429 192.42 146.446 192.811 146.446 193.201V201.268C146.446 201.756 146.218 202 145.762 202H144.278ZM162.129 202C161.673 202 161.446 201.756 161.446 201.268V188.729C161.446 188.24 161.673 187.996 162.129 187.996H170.508C170.996 187.996 171.24 188.208 171.24 188.631V189.783C171.24 190.206 170.996 190.418 170.508 190.418H164.297V193.523H169.99C170.479 193.523 170.723 193.735 170.723 194.158V195.311C170.723 195.734 170.479 195.945 169.99 195.945H164.297V199.578H170.821C171.309 199.578 171.553 199.79 171.553 200.213V201.365C171.553 201.788 171.309 202 170.821 202H162.129ZM174.629 202C174.173 202 173.946 201.756 173.946 201.268V188.729C173.946 188.24 174.173 187.996 174.629 187.996H176.074C176.634 187.996 177.058 188.224 177.344 188.68L182.324 196.678H182.393C182.36 196.287 182.344 195.896 182.344 195.506V188.729C182.344 188.24 182.572 187.996 183.028 187.996H184.512C184.968 187.996 185.196 188.24 185.196 188.729V201.268C185.196 201.756 184.968 202 184.512 202H183.164C182.604 202 182.181 201.772 181.895 201.316L176.817 193.172H176.748C176.781 193.562 176.797 193.953 176.797 194.344V201.268C176.797 201.756 176.569 202 176.114 202H174.629ZM187.823 190.496C187.334 190.496 187.09 190.285 187.09 189.861V188.631C187.09 188.208 187.334 187.996 187.823 187.996H197.862C198.35 187.996 198.594 188.208 198.594 188.631V189.861C198.594 190.285 198.35 190.496 197.862 190.496H194.268V201.463C194.268 201.821 194.105 202 193.78 202H191.905C191.579 202 191.416 201.821 191.416 201.463V190.496H187.823Z" fill="white"/>
</svg>
